<svg id="Layer_1" data-name="Layer 1" xmlns="http://www.w3.org/2000/svg" viewBox="0 0 800.68 800.68"><defs><style>.cls-1{fill:#0c5690;stroke:#0c5690;stroke-miterlimit:10;stroke-width:6.52px;}</style></defs><path class="cls-1" d="M176.81,441,159,401a7.23,7.23,0,0,1,3.26-9.4l28.21-13.76a26.81,26.81,0,0,1,2.9-1.42l361-176.16a6.63,6.63,0,0,1,9,3.42l26.57,59.62a32,32,0,0,0-9.07,37.88c6,13.5,20.21,20.34,33.55,17.08l25.19,56.54A25.6,25.6,0,0,1,653.62,382a20.41,20.41,0,0,0-1.73-9.52l-31.44-70.55L615,304.6c-8.72,4.25-19.11.29-23.17-8.83s-.29-20,8.43-24.27l5.5-2.68-31.44-70.56c-4.4-9.88-15.67-14.18-25.12-9.57L157.09,380c-9.45,4.61-13.55,16.41-9.15,26.29l28.87,64.8Z"/><path class="cls-1" d="M513.19,235.32a6.86,6.86,0,0,0-9.37-3.27,7.46,7.46,0,0,0-3.63,9.61l1.58,3.53a6.85,6.85,0,0,0,9.36,3.27,7.46,7.46,0,0,0,3.63-9.61Z"/><path class="cls-1" d="M572.14,367.6a6.87,6.87,0,0,0-9.37-3.28,7.47,7.47,0,0,0-3.63,9.62l.2.44h14.93a7,7,0,0,0-.56-3.25Z"/><path class="cls-1" d="M548.88,315a7,7,0,0,0-9.6-3.36,7.66,7.66,0,0,0-3.72,9.86l1.62,3.63a7,7,0,0,0,9.61,3.36,7.65,7.65,0,0,0,3.71-9.86Z"/><path class="cls-1" d="M560.35,341.14a6.86,6.86,0,0,0-9.37-3.28,7.47,7.47,0,0,0-3.63,9.62l1.58,3.53a6.85,6.85,0,0,0,9.36,3.27,7.45,7.45,0,0,0,3.63-9.61Z"/><path class="cls-1" d="M536.74,287.69a7,7,0,0,0-9.61-3.35,7.63,7.63,0,0,0-3.71,9.85l1.62,3.64a7,7,0,0,0,9.6,3.36,7.65,7.65,0,0,0,3.71-9.86Z"/><path class="cls-1" d="M525,261.78a6.86,6.86,0,0,0-9.37-3.27,7.47,7.47,0,0,0-3.63,9.62l1.58,3.52a6.84,6.84,0,0,0,9.36,3.28,7.47,7.47,0,0,0,3.63-9.62Z"/><path class="cls-1" d="M648.43,479.69h6.08V401.84c0-10.91-8.49-19.79-18.91-19.79H203c-10.43,0-18.91,8.88-18.91,19.79v77.84h6.07c9.62,0,17.44,8.19,17.44,18.26s-7.82,18.25-17.43,18.25H184.1v77.85c0,10.91,8.48,19.79,18.91,19.79H635.6c10.42,0,18.91-8.88,18.91-19.79V516.21h-6.08C638.82,516.2,631,508,631,498S638.82,479.69,648.43,479.69Zm-6.07,48.57v65.79a6.93,6.93,0,0,1-6.76,7.07H203a6.93,6.93,0,0,1-6.76-7.07V528.26c13.41-2.94,23.51-15.42,23.51-30.31s-10.1-27.37-23.51-30.32V401.84a6.93,6.93,0,0,1,6.76-7.07H635.6a6.93,6.93,0,0,1,6.76,7.07v65.79C629,470.58,618.85,483.05,618.85,498S629,525.31,642.36,528.26Z"/><path class="cls-1" d="M577,489.11a7.33,7.33,0,0,0-7.35,7.29v4a7.35,7.35,0,0,0,14.7,0v-4A7.33,7.33,0,0,0,577,489.11Z"/><path class="cls-1" d="M577,519.27a7.33,7.33,0,0,0-7.35,7.29v4a7.35,7.35,0,0,0,14.7,0v-4A7.33,7.33,0,0,0,577,519.27Z"/><path class="cls-1" d="M577,459a7.33,7.33,0,0,0-7.35,7.29v4a7.35,7.35,0,0,0,14.7,0v-4A7.33,7.33,0,0,0,577,459Z"/><path class="cls-1" d="M577,576.48a7.15,7.15,0,0,0-7.17,7.11v3.9a7.17,7.17,0,0,0,14.34,0v-3.9A7.15,7.15,0,0,0,577,576.48Z"/><path class="cls-1" d="M577,547.28a7.15,7.15,0,0,0-7.17,7.11v3.9a7.17,7.17,0,0,0,14.34,0v-3.9A7.15,7.15,0,0,0,577,547.28Z"/><path class="cls-1" d="M577,448.61a7.15,7.15,0,0,0,7.17-7.12V437.6a7.17,7.17,0,0,0-14.34,0v3.89A7.15,7.15,0,0,0,577,448.61Z"/><path class="cls-1" d="M577,419.41a7.15,7.15,0,0,0,7.17-7.11v-3.9a7.17,7.17,0,0,0-14.34,0v3.9A7.15,7.15,0,0,0,577,419.41Z"/></svg>