<svg id="Layer_1" data-name="Layer 1" xmlns="http://www.w3.org/2000/svg" viewBox="0 0 800.68 800.68"><defs><style>.cls-1{fill:#fff;}</style></defs><path class="cls-1" d="M207.61,396.75a190.14,190.14,0,0,0,14.06,76.38c31,75.9,110,125,192,119.5,81.63-5.52,153-64.64,173.43-143.78,19.32-74.63-9-156.09-70.5-202.7C442.18,189.73,335,195.93,267.19,260.57,230.43,295.64,208.72,345.28,207.61,396.75Zm30.94-64.56A176.61,176.61,0,0,1,288,265.46l1.19-1,66.61,23,16.54,53.33-.26.35L335.13,390h-.43l-56.87-1.1L238,333.61Zm146.9,20.26,55.2,19.12v.61L439.52,430l-.58.18L383.62,447l-.35-.5L350.2,399Zm-157.4,80.8A177.92,177.92,0,0,1,225,396.78v-.32a177.6,177.6,0,0,1,4.65-36.76l1.37-5.84,31.28,43.33-.4.5-32.71,41.45Zm54.27,96.65a176.51,176.51,0,0,1-46.53-68.79l-.54-1.44,42.1-53.33h.42l57,1.1.25.35,34.94,50.11-.15.41L351,510.81l-67.54,20.13Zm98.23,44.55a172.62,172.62,0,0,1-75.52-27l-4.95-3.22,54-16.1,32.4,47ZM490.08,551a175,175,0,0,1-80.6,24.38l-1.52.07-.27-.39-40.22-58.31.14-.41,18.55-51.83,62.09-18.85.35.26,43.86,32.71-1.08,71.58Zm71.48-81.4a176.9,176.9,0,0,1-47.9,64.51l-4.59,3.9.86-57.21.59-.18,53.38-16.46Zm10.79-104.27a177.75,177.75,0,0,1-1.65,77l-.37,1.5-.46.14L503,464.6l-.34-.26-45.62-34v-.43l1.11-57.39,47.5-32.36L572,363.77Zm-53.06-94.1a176.73,176.73,0,0,1,45.09,66.51l2.11,5.53-53.2-18.94,1.58-57.19ZM417,225.51a174.92,174.92,0,0,1,79.47,27.8l1.27.84-2,71.57-.36.24-44.82,30.53-.4-.14-61.29-21.23-16.38-52.83.26-.35,42.71-56.57ZM311.43,248.88A172.6,172.6,0,0,1,388,225.15l6-.41-34.39,45.55-53.28-18.41Z"/></svg>