<svg id="Layer_1" data-name="Layer 1" xmlns="http://www.w3.org/2000/svg" viewBox="0 0 800.68 800.68"><defs><style>.cls-1{fill:#0c5690;}</style></defs><path class="cls-1" d="M400.37,191.56C286,191.56,193,284.61,193,399s93,207.41,207.41,207.41,207.41-93,207.41-207.41S514.74,191.56,400.37,191.56ZM563.61,303.44c-54.9-22.57-108.06-32-158.35-28.06-5.43.42-10.81,1-16.15,1.77a45.4,45.4,0,0,0-11.77-10.44,174.63,174.63,0,0,1,72.81-50.27A190,190,0,0,1,563.61,303.44Zm-234.78,42c-9.25-1.67-16.64-6.58-20.82-13.82-8.93-15.46-.7-37,18.34-48a45.84,45.84,0,0,1,22.84-6.35,39.41,39.41,0,0,1,7.05.63c9.25,1.67,16.65,6.58,20.82,13.82,8.93,15.46.7,37-18.34,48C349.26,345.16,338.64,347.2,328.83,345.42Zm89.84-134.75A191.86,191.86,0,0,0,359.46,260c-14-2.54-29,.25-42.22,7.87-.77.44-1.51.9-2.25,1.37-13.08-9.5-23.7-15.26-31.72-18.74a188.3,188.3,0,0,1,117.1-40.7C406.54,209.78,412.65,210.09,418.67,210.67ZM267.74,264.19c5.41,1.58,16.57,5.87,32.94,17.24-8.71,10-13.76,22.07-14.37,34.1q-5.71,3.81-11.2,8C245.23,346.13,223,374.94,211.25,404c-.05-1.68-.07-3.37-.07-5.06A188.63,188.63,0,0,1,267.74,264.19ZM221.11,459.5c-6.06-38,20.56-87.8,65-121.5,1.1-.84,2.29-1.71,3.52-2.59a43.93,43.93,0,0,0,2.59,5.3,45.57,45.57,0,0,0,20.56,18.64,312.37,312.37,0,0,0-7.14,46.36c-3.25,41.65,1.56,84.24,13.55,120,7.53,22.4,17.63,41.21,29.52,55.34A190,190,0,0,1,221.11,459.5ZM382.28,587.29l.51-.92c-18.9-10.23-35.35-33.85-46.32-66.51-11.23-33.44-15.72-73.47-12.65-112.73A297.78,297.78,0,0,1,330.45,364c1.8.17,3.61.26,5.42.26a64.15,64.15,0,0,0,32-8.79h0a66.37,66.37,0,0,0,6-3.94C409.35,393.7,454.5,457.85,507.3,555a188.13,188.13,0,0,1-106.93,33.2Q391.22,588.16,382.28,587.29ZM522,543.79C475.2,458,430,389.39,387,338.7c10-13.15,14.08-29.36,10.57-44.13,47-5.52,106.78.83,178.48,34.25a189,189,0,0,1-54.11,215Z"/></svg>