<svg id="Layer_1" data-name="Layer 1" xmlns="http://www.w3.org/2000/svg" viewBox="0 0 800.68 800.68"><defs><style>.cls-1{fill:#fff;}</style></defs><path class="cls-1" d="M692.65,441.5l-3.38-12.61H525c-16.22-60.66-57.1-114-112.91-146.92-49-29-103.84-38.83-155.86-28.41a21.36,21.36,0,0,0-40.41,12.5,214.77,214.77,0,0,0-56,35,243.57,243.57,0,0,0-57.07,72.49C73.13,430.22,65.07,496.77,80.64,556.1c3.27,12.47,12.32,23,26.88,31.44,21.16,12.21,54.31,19.54,93.33,20.65q5.37.15,10.78.15a442.72,442.72,0,0,0,115.85-16A580.33,580.33,0,0,0,406,564.79c145.19-.38,237-24.22,272.75-70.89C698.89,467.66,693.35,444.1,692.65,441.5ZM296.89,283.59c33.21,0,66.83,9.39,97.87,27.71,49.6,29.29,85.51,77.07,98.52,131.11a20.1,20.1,0,0,1,.5,3.49h0c0,7.74-3.14,15.52-8.32,23.09a104,104,0,0,1-13.73,15.69c-10.35,9.78-23.12,18.82-35.57,26.46l-.47.28c-.24.16-.49.31-.74.46q-4.57,2.73-9.41,5.42c-8.87-23.91-26-67.38-48.69-111.79-19.73-38.65-39.57-69.92-59-92.95a198.68,198.68,0,0,0-29.26-28.76C291.37,283.68,294.13,283.59,296.89,283.59Zm21.57,275.88a421.71,421.71,0,0,1-68.6,12.85c-31.51-92.2-30.12-162.65-23-206.38,5.32-32.55,14.47-55.27,20.25-67.22,29.05,10.13,63.82,52.71,99.22,122,22.86,44.74,40.28,89.56,48.46,111.82l-23.75,9.81C354.52,548.64,336.87,554.41,318.46,559.47ZM124.53,558c-6.12-3.53-10.11-7.39-11-10.58C89.41,455.35,131.24,355.33,206,309.4a305.44,305.44,0,0,0-12.34,48.65c-5.55,32.49-6.62,67.25-3.19,103.33,3.47,36.43,11.56,74.3,24.12,112.91C174.54,574.64,142,568.14,124.53,558Zm526.11-83.5c-14.72,17.95-57.17,46.3-179.11,54.13q1.89-1.33,3.72-2.68c18.57-13.68,32.47-27.88,41.3-42.21a78.33,78.33,0,0,0,9.18-20.84H657.64A43.41,43.41,0,0,1,650.64,474.54Z"/></svg>