<svg id="Layer_1" data-name="Layer 1" xmlns="http://www.w3.org/2000/svg" viewBox="0 0 800.68 800.68"><defs><style>.cls-1,.cls-2{fill:none;stroke:#0c5690;stroke-linecap:round;stroke-linejoin:round;}.cls-1{stroke-width:19.47px;}.cls-2{stroke-width:4.87px;}</style></defs><polygon class="cls-1" points="397.65 321.78 251.66 175.78 184.54 272.17 315.9 403.53 397.65 321.78"/><polygon class="cls-1" points="367.42 172.3 254.01 172.3 367.42 285.7 367.42 172.3"/><path class="cls-2" d="M208.59,516.68a1.94,1.94,0,0,0-.89.5l-5.41,5.4L179.47,545.4a2.06,2.06,0,0,0,2.92,2.92l22.82-22.82,2.92-2.92,2.7,2.71-2.92,2.92L185.1,551a2.06,2.06,0,0,0,0,2.92,2.05,2.05,0,0,0,2.92,0l22.81-22.81,2.92-2.92,2.71,2.71-2.92,2.91-22.82,22.82a2.06,2.06,0,0,0,2.92,2.92l22.82-22.82,2.92-2.92,2.7,2.71-2.92,2.92-22.81,22.81a2.06,2.06,0,0,0,0,2.92,2.05,2.05,0,0,0,2.92,0l22.81-22.81,2.92-2.92,2.71,2.71-2.92,2.91L202,567.9a2.06,2.06,0,0,0,2.92,2.92L227.71,548l2.92-2.92,2.7,2.71-2.92,2.92L207.6,573.52a2.06,2.06,0,0,0,0,2.92,2.05,2.05,0,0,0,2.92,0l22.81-22.81,2.92-2.92,2.71,2.7L236,556.33l-22.82,22.82a2.06,2.06,0,0,0,2.92,2.92L239,559.25l2.92-2.92,2.7,2.71L241.66,562l-22.81,22.81a2.06,2.06,0,0,0,0,2.92,2.05,2.05,0,0,0,2.92,0l22.81-22.81L247.5,562l2.71,2.7-2.92,2.92L224.47,590.4a2.06,2.06,0,0,0,2.92,2.92l22.82-22.82,2.92-2.92,2.7,2.71-2.92,2.92L230.1,596a2.06,2.06,0,0,0,0,2.92,2.05,2.05,0,0,0,2.92,0l22.81-22.81,2.92-2.92,2.71,2.7-2.92,2.92-22.82,22.82a2.06,2.06,0,0,0,2.92,2.92l22.82-22.82,2.92-2.92,2.7,2.71-2.92,2.92-22.81,22.81a2.06,2.06,0,0,0,0,2.92,2.05,2.05,0,0,0,2.92,0l22.81-22.81,2.92-2.92,2.71,2.7-2.92,2.92L247,612.9a2.06,2.06,0,0,0,2.92,2.92l25.74-25.74,2.7,2.71-2.92,2.92L252.6,618.52a2.06,2.06,0,0,0,0,2.92,2.05,2.05,0,0,0,2.92,0l22.81-22.81,2.92-2.92,2.71,2.7L281,601.33l-22.82,22.82a2.06,2.06,0,0,0,2.92,2.92L284,604.25l2.92-2.92.28.29,23.46-23.46-81.75-81.75Z"/><polygon class="cls-1" points="383.93 292.04 383.93 172.3 371.54 172.3 371.54 289.83 373.75 292.04 383.93 292.04"/><polygon class="cls-1" points="434.86 172.3 434.86 284.58 547.14 172.3 434.86 172.3"/><rect class="cls-1" x="270.85" y="472.18" width="12.39" height="115.61" transform="translate(-293.61 351.13) rotate(-45)"/><polygon class="cls-1" points="430.73 288.7 430.73 172.3 418.34 172.3 418.34 292.04 427.39 292.04 430.73 288.7"/><rect class="cls-1" x="430.33" y="487.82" width="115.61" height="12.39" transform="translate(-206.35 489.86) rotate(-45)"/><rect class="cls-1" x="303.94" y="439.09" width="12.39" height="115.61" transform="translate(-260.52 364.83) rotate(-45)"/><path class="cls-2" d="M621.21,545.61l-22.69-22.68L595.6,520l.14-.15L569.4,493.53l-81.75,81.75,22.6,22.6a2.05,2.05,0,0,0,.57,1.68l5.53,5.53L539,627.78a2.05,2.05,0,0,0,2.92,0,2.06,2.06,0,0,0,0-2.92l-22.69-22.69-2.92-2.92,2.75-2.74,2.91,2.92,22.69,22.69a2.06,2.06,0,1,0,2.92-2.92l-22.69-22.69L522,593.59l2.75-2.74,2.91,2.92,22.69,22.69a2.06,2.06,0,0,0,2.92-2.92l-22.69-22.69-2.92-2.92,2.75-2.74L556,610.8a2.06,2.06,0,0,0,2.92-2.92l-22.69-22.69-2.92-2.92,2.75-2.74,2.92,2.92,22.68,22.69a2.06,2.06,0,1,0,2.92-2.92l-22.68-22.69L539,576.61l2.74-2.74,2.92,2.92,22.68,22.69a2.09,2.09,0,0,0,1.46.6,2.06,2.06,0,0,0,1.46-3.52l-22.69-22.69L544.66,571l2.74-2.74,2.92,2.92L573,593.82a2.09,2.09,0,0,0,1.46.6,2.06,2.06,0,0,0,1.46-3.52l-22.68-22.69-2.92-2.92,2.74-2.74,2.92,2.92,22.68,22.69a2.09,2.09,0,0,0,1.46.6,2.06,2.06,0,0,0,1.46-3.52L558.9,562.55,556,559.63l2.74-2.74,2.92,2.92,22.69,22.69a2.06,2.06,0,1,0,2.91-2.92l-22.68-22.69L561.64,554l2.74-2.74,2.92,2.92L590,576.84a2.06,2.06,0,0,0,2.91-2.92l-22.68-22.69-2.92-2.92,2.74-2.74,2.92,2.92,22.69,22.69a2.06,2.06,0,0,0,1.46.6,2.06,2.06,0,0,0,1.46-3.52l-22.69-22.69L573,542.65l2.74-2.74,2.92,2.92,22.69,22.69a2.06,2.06,0,0,0,1.46.6,2.06,2.06,0,0,0,1.46-3.52l-22.69-22.69L578.62,537l2.74-2.74,2.92,2.92L607,559.85a2,2,0,0,0,1.46.61,2.07,2.07,0,0,0,1.46-3.52L587.2,534.25l-2.92-2.92,2.74-2.74,2.92,2.92,22.69,22.68a2,2,0,0,0,1.46.61,2.07,2.07,0,0,0,1.46-3.52l-22.69-22.69-2.92-2.92,2.74-2.74,2.92,2.92,22.69,22.68a2.05,2.05,0,0,0,2.92,0A2.08,2.08,0,0,0,621.21,545.61Z"/><rect class="cls-1" x="463.42" y="520.91" width="115.61" height="12.39" transform="translate(-220.05 522.95) rotate(-45)"/><path class="cls-1" d="M549.45,175.83,276.55,448.72l81.76,81.75L614.45,274.33Z"/><rect class="cls-1" x="404.8" y="442.69" width="115.61" height="51.58" transform="translate(-195.77 464.33) rotate(-45)"/></svg>