<svg id="Layer_1" data-name="Layer 1" xmlns="http://www.w3.org/2000/svg" viewBox="0 0 800.68 800.68"><defs><style>.cls-1{fill:#fff;}</style></defs><path class="cls-1" d="M677.62,262l-181-115.15a14.81,14.81,0,0,0-19.21,2.91c-.37.42-36.6,42.39-77.05,42.39s-76.64-42-77-42.37a14.8,14.8,0,0,0-19.24-2.93L123.06,262a14.78,14.78,0,0,0-4.54,20.42L197.71,407a14.79,14.79,0,0,0,20.42,4.54l19.79-12.59V641.32a14.79,14.79,0,0,0,14.79,14.79H547.49a14.79,14.79,0,0,0,14.79-14.79V398.61l20.27,12.89A14.79,14.79,0,0,0,603,407l79.19-124.51A14.78,14.78,0,0,0,677.62,262ZM309.73,178.36a195.91,195.91,0,0,0,16.53,14.31L163.56,298.15l-12.15-19.1ZM586,378.6l-30.52-19.4a14.79,14.79,0,0,0-22.73,12.48V626.53H267.5V372a14.79,14.79,0,0,0-22.73-12.48l-30,19.11-44.82-70.48L336.58,200.07c17.23,11.46,39.38,21.69,63.74,21.69,25.26,0,48.18-11,65.66-22.93L632.12,306ZM638.46,296,476.16,191.32c5.93-4.7,10.93-9.22,14.79-13L649.27,279.05Z"/><path class="cls-1" d="M400.89,480.07l-22.64-22.63a130.87,130.87,0,0,1-38.58-93.15V325.08l14.51,14.51c19.77,19.77,38.59,2.11,40.67,0l6.08-6.06,6,6.06c2.08,2.08,20.91,19.74,40.68,0l14.51-14.51v39.21a130.87,130.87,0,0,1-38.58,93.15Zm-44.22-118v2.2a114,114,0,0,0,33.6,81.13L400.89,456l10.62-10.62a114,114,0,0,0,33.61-81.13v-2.2a39.45,39.45,0,0,1-17,3.84h-.2c-11.58-.05-21.19-5.23-27-9.37-5.83,4.14-15.44,9.32-27,9.37h-.2A39.39,39.39,0,0,1,356.67,362.09Z"/></svg>