<svg id="Layer_1" data-name="Layer 1" xmlns="http://www.w3.org/2000/svg" viewBox="0 0 800.68 800.68"><defs><style>.cls-1{fill:#0c5690;}.cls-2{fill:none;stroke:#0c5690;stroke-miterlimit:10;stroke-width:14.76px;}</style></defs><path class="cls-1" d="M640.48,474.48c-.59,39.15-13.31,74.64-38.63,105.56-5.56,6.79-12.38,8-18.07,3.51-6.37-5.08-6.83-11.77-1.29-18.87,44.63-57.11,44.66-126.1.08-183.08-5.57-7.12-5.17-13.71,1.14-18.86,5.9-4.81,12.21-3.85,18,3.23C627.37,397.28,640.2,433.23,640.48,474.48Z"/><path class="cls-1" d="M209.57,357.85c4.13,3.51,8.28,5.91,10.77,9.46,3.19,4.55,1.52,9.42-2,13.64-12.34,14.89-22,31.36-27.25,50-13.75,48.48-5.42,92.8,25.93,132.49,3.75,4.76,7.31,10,3.23,15.35-2.62,3.44-7.62,6.07-12,6.85-2.71.48-6.92-2.5-9.14-5.06-51.84-59.76-52-154.69-.36-214.49C201.41,363.09,205.22,361.13,209.57,357.85Z"/><path class="cls-1" d="M239.56,388.14c3.4,2.69,7.08,4.54,9.16,7.51,3.2,4.56,1.7,9.39-1.43,13.82-10,14.14-16.74,29.6-19.26,46.87-4.06,27.72,1.38,53.31,16.73,76.78.81,1.25,1.73,2.42,2.55,3.67,4.71,7.12,4,13.64-1.79,17.66-5.35,3.7-11.92,2.16-16.9-4-31.11-38.24-35.45-95.27-10.36-138.53a155.1,155.1,0,0,1,12.59-18.27C232.66,391.4,236,390.32,239.56,388.14Z"/><path class="cls-1" d="M598.67,468.88c-.56,33.26-9.39,59-27,81.81-3.33,4.32-7.75,7.21-12.82,5.15-3.42-1.4-7.19-4.93-8.22-8.29-.94-3.08.69-7.84,2.73-10.81,21.65-31.51,26.08-65.41,13.63-101.25-3.37-9.68-9.35-18.5-14.46-27.53-4.27-7.54-3.27-12.4,3.9-17,6.94-4.41,11.35,0,15.13,4.63a115.63,115.63,0,0,1,23.72,49.79C597.28,454.57,598,464,598.67,468.88Z"/><path class="cls-1" d="M402.76,390.4c-49.1-.74-88,36.38-88.85,84.81-.83,46.83,37.74,86.51,84.75,87.19,47.74.68,86.69-37.65,87.43-86C486.77,431.06,448,391.08,402.76,390.4Zm-2.89,138.1a52,52,0,0,1-52.12-51.94c-.24-29.17,22.44-52.05,50.49-52.67,30.83-.71,53.89,22.47,53.92,52.14C452.19,505.41,429.13,528.56,399.87,528.5Z"/><path class="cls-1" d="M462.88,293.37a63.28,63.28,0,0,1-62.64,62.82c-34.89.21-63.31-28.5-63.16-63.82.15-34.29,28.5-62.33,63-62.32A63,63,0,0,1,462.88,293.37ZM399.67,331a38.17,38.17,0,0,0,38.67-37.87c.22-20.92-17.14-38.18-38.42-38.18s-38.47,17.32-38.3,38.3A38.17,38.17,0,0,0,399.67,331Z"/><rect class="cls-2" x="284.58" y="193.72" width="231.53" height="413.24" rx="25.11"/></svg>