<svg id="Layer_1" data-name="Layer 1" xmlns="http://www.w3.org/2000/svg" viewBox="0 0 800.68 800.68"><defs><style>.cls-1{fill:#fff;}</style></defs><path class="cls-1" d="M591,152.34H413.69a60.41,60.41,0,0,0-60.34,60.34v55.1a82.81,82.81,0,0,0-18.59-2.14c-22.93,0-44.5,9.39-60.74,26.43-17.8,18.7-27.27,44.78-26,71.57l2,42.31c2.11,43.4,33.68,78.14,73.84,83.5l-14.79,14.33-7.86-18.61H255.1A105.9,105.9,0,0,0,149.32,591v57.39H521.39V591A105.9,105.9,0,0,0,415.61,485.17H378.14l-8.67,20.54-17.39-17.39c37-8,65.35-41.34,67.34-82.37l2.06-42.31c0-.7,0-1.4.07-2.1h30.34l-27.52,68.8,113-68.8H591a60.4,60.4,0,0,0,60.34-60.34V212.68A60.4,60.4,0,0,0,591,152.34ZM415.61,503.17A87.88,87.88,0,0,1,503.39,591v39.39H167.32V591a87.88,87.88,0,0,1,87.78-87.78h34.26l50.36,119.31,50.36-119.31Zm-75.89,73-23.06-54.62,21.95-21.27,23.31,23.31ZM403.5,362.76l-2.06,42.32c-1.82,37.63-31.11,67.11-66.68,67.11h0c-35.56,0-64.85-29.48-66.68-67.11L266,362.76c-1.07-21.89,6.6-43.13,21-58.27,12.8-13.44,29.74-20.85,47.7-20.85A64.19,64.19,0,0,1,360,288.82l.8.34c.83.37,1.64.75,2.45,1.15l.49.24c.78.39,1.55.81,2.32,1.23.37.21.74.42,1.1.64l1.4.83c.42.26.84.52,1.25.79s.77.5,1.15.76q1.35.92,2.67,1.89l.61.46c.54.41,1.06.83,1.58,1.25l.6.5a71.52,71.52,0,0,1,6.91,6.58l.34.39a76.21,76.21,0,0,1,14.46,23.63l.09.22q1.29,3.39,2.28,6.92c.08.28.16.56.23.83.2.72.38,1.44.56,2.16l.18.81c.29,1.28.55,2.56.79,3.86l.18,1.07c.12.72.23,1.44.33,2.17,0,.25.07.51.1.76.19,1.47.34,2.95.44,4.44,0,.28,0,.56.07.84l.08,1.2C403.62,357.42,403.63,360.09,403.5,362.76ZM633.36,301.2A42.38,42.38,0,0,1,591,343.54H532.29l-71.15,43.33,17.33-43.33h-58a95.66,95.66,0,0,0-24.93-51.47,87.52,87.52,0,0,0-14.7-12.37l-.19-.13c-1.46-1-2.94-1.9-4.46-2.78l0,0c-.69-.4-1.38-.78-2.08-1.16l-1-.5c-.58-.31-1.15-.63-1.74-.92V212.68a42.39,42.39,0,0,1,42.34-42.34H591a42.39,42.39,0,0,1,42.34,42.34Z"/><path class="cls-1" d="M412.6,593.46h50.81a9,9,0,1,0,0-18H412.6a9,9,0,0,0,0,18Z"/><path class="cls-1" d="M582.61,204.86H428a9,9,0,0,0,0,18H582.61a9,9,0,0,0,0-18Z"/><path class="cls-1" d="M582.61,245.58H428a9,9,0,0,0,0,18H582.61a9,9,0,1,0,0-18Z"/><path class="cls-1" d="M582.61,286.3H428a9,9,0,0,0,0,18H582.61a9,9,0,0,0,0-18Z"/></svg>