<svg id="Layer_1" data-name="Layer 1" xmlns="http://www.w3.org/2000/svg" viewBox="0 0 800.68 800.68"><defs><style>.cls-1{fill:#0c5690;}</style></defs><path class="cls-1" d="M410.86,516.57a29.59,29.59,0,0,0-23.07,10.48q-9.3,10.5-9.29,25.47T387.79,578a30.61,30.61,0,0,0,46.14,0q9.29-10.49,9.29-25.47t-9.29-25.47A29.63,29.63,0,0,0,410.86,516.57Z"/><path class="cls-1" d="M527.7,321.69q15-25.45,15-56.85,0-56.5-31.74-88.95t-94.52-32.43q-26.52,0-47.79,7.32A149.84,149.84,0,0,0,331,169.62a155.9,155.9,0,0,0-29,26.16,235.82,235.82,0,0,0-21.62,29.29l37,26.51a198.8,198.8,0,0,1,41.86-45q23.7-18.48,55.11-18.49,35.56,0,54.41,18.84t18.83,54.41a94,94,0,0,1-3.48,26.51A88.65,88.65,0,0,1,474,310.18a177.87,177.87,0,0,1-16,21.28q-9.42,10.82-21.28,23.37a326.24,326.24,0,0,0-35.58,43.94q-16.05,23.73-16,56.51v29.3h51.62V459.46a62.72,62.72,0,0,1,2.79-19.18,78.1,78.1,0,0,1,9.42-18.83,197.83,197.83,0,0,1,17.44-22.33q10.8-12.19,26.16-29.64A291,291,0,0,0,527.7,321.69Z"/><path class="cls-1" d="M256.15,593.54a27.25,27.25,0,0,0-21.17,9.6,34.34,34.34,0,0,0,0,44.48,28.18,28.18,0,0,0,42.37,0,34.34,34.34,0,0,0,0-44.48A27.28,27.28,0,0,0,256.15,593.54Z"/><path class="cls-1" d="M259.47,353.19a94,94,0,0,0-30.64,4.73A96.46,96.46,0,0,0,204.72,370a100,100,0,0,0-18.47,16.7A148.12,148.12,0,0,0,172.77,405l-3.44,5.56,33.08,23.71,4-5.91a111.39,111.39,0,0,1,23.37-25.13,44.48,44.48,0,0,1,28.41-9.5c12.25,0,21.2,3,27.34,9.13s9.13,15.09,9.13,27.35a49.18,49.18,0,0,1-1.78,13.75,45.75,45.75,0,0,1-5.2,11.48,99.13,99.13,0,0,1-8.9,11.79c-3.58,4.11-7.76,8.71-12.38,13.6a201.2,201.2,0,0,0-21.88,27c-7.12,10.52-10.73,23.12-10.73,37.47v24.39h44.65V547.76a30.41,30.41,0,0,1,1.32-9.26,40.15,40.15,0,0,1,4.77-9.47,113.07,113.07,0,0,1,9.74-12.44q6.4-7.23,15.51-17.58a180.17,180.17,0,0,0,21.72-29.47,72.45,72.45,0,0,0,9.87-37.3c0-24.15-7-43.56-20.84-57.69S286.14,353.19,259.47,353.19Z"/><path class="cls-1" d="M618.39,410.86h0c-12-12.24-29.5-18.45-52.06-18.45a79.67,79.67,0,0,0-25.94,4A81.54,81.54,0,0,0,520,406.64a84.35,84.35,0,0,0-15.59,14.09,122.44,122.44,0,0,0-11.15,15.12l-5.18,8.38,34.19,24.52,6.09-8.91A83.47,83.47,0,0,1,545.88,441a30.47,30.47,0,0,1,19.47-6.48c8.33,0,14.27,1.89,18.16,5.78s5.78,9.83,5.78,18.16a33.65,33.65,0,0,1-1.22,9.5,30.81,30.81,0,0,1-3.55,7.84,72.74,72.74,0,0,1-6.6,8.75c-2.79,3.21-6.06,6.79-9.65,10.6a165.57,165.57,0,0,0-17.91,22.11c-6.21,9.19-9.37,20.13-9.37,32.53v24.35h45.42V551.78a19.22,19.22,0,0,1,.82-5.83,26.73,26.73,0,0,1,3.21-6.29,82.71,82.71,0,0,1,7.28-9.3c3.4-3.83,7.51-8.5,12.24-13.87a147.4,147.4,0,0,0,17.86-24.24,62.36,62.36,0,0,0,8.53-32.13C636.35,439.61,630.3,423,618.39,410.86Z"/><path class="cls-1" d="M563.7,593.12a26.76,26.76,0,0,0-20.54,9.3,32.22,32.22,0,0,0,0,41.92,27.32,27.32,0,0,0,41.09,0,32.23,32.23,0,0,0,0-41.93A26.82,26.82,0,0,0,563.7,593.12Z"/></svg>