<svg id="Layer_1" data-name="Layer 1" xmlns="http://www.w3.org/2000/svg" viewBox="0 0 800.68 800.68"><defs><style>.cls-1{fill:#fff;}</style></defs><polygon class="cls-1" points="96.86 526.21 106.91 526.21 120.13 553.66 96.86 553.66 96.86 526.21"/><polygon class="cls-1" points="703.82 526.21 693.77 526.21 680.54 553.66 703.82 553.66 703.82 526.21"/><path class="cls-1" d="M690.38,406.91,649.58,464l23-57.07h-53.7l-24,57.07,6.2-57.07H199.64L205.83,464l-24-57.07H128.12l23,57.07-40.8-57.07H64.77l67.12,146.75h41.94v-47.1c0-7.68,5.64-13.8,12.58-13.8s12.6,6.12,12.6,13.67v47.23h50.33v-47.1c0-7.68,5.64-13.8,12.57-13.8s12.59,6.12,12.59,13.67v47.23H314V426.05H486.74V553.66H526.2v-47.1c0-7.68,5.62-13.8,12.56-13.8s12.59,6.12,12.59,13.67v47.23h50.33v-47.1c0-7.68,5.64-13.8,12.59-13.8s12.59,6.12,12.59,13.67v47.23h41.93l67.12-146.75Z"/><path class="cls-1" d="M601.67,400.27a3.79,3.79,0,0,1-2.6-1.07l-64.5-61.33L470.06,399.2a3.7,3.7,0,0,1-5.21,0l-64.51-61.33-64.5,61.33a3.71,3.71,0,0,1-5.22,0l-64.51-61.33-64.5,61.33a3.7,3.7,0,0,1-5.21,0l-67.11-63.8a4.57,4.57,0,0,1-.37-6.07,3.75,3.75,0,0,1,5.58-.4L199,390.27l64.5-61.34a3.7,3.7,0,0,1,5.21,0l64.51,61.34,64.51-61.34a3.7,3.7,0,0,1,5.21,0l64.51,61.34L532,328.93a3.71,3.71,0,0,1,5.2,0l64.5,61.34,64.51-61.34a3.74,3.74,0,0,1,5.58.4,4.57,4.57,0,0,1-.37,6.07l-67.11,63.8A3.77,3.77,0,0,1,601.67,400.27Z"/><path class="cls-1" d="M736,400.27H64.77a4,4,0,0,1-3.7-2.78,4.54,4.54,0,0,1,1.1-4.75l67.12-63.81a3.79,3.79,0,0,1,2.61-1.07H668.79a3.74,3.74,0,0,1,2.6,1.06L738,392.21a4.37,4.37,0,0,1,2,3.76A4.13,4.13,0,0,1,736,400.27Zm-660.75-8.6H725.38L667.3,336.46H133.38Z"/><rect class="cls-1" x="486.74" y="571.86" width="250.6" height="10.96"/><rect class="cls-1" x="63.33" y="571.86" width="250.62" height="10.96"/><rect class="cls-1" x="46.56" y="601.03" width="267.39" height="10.96"/><rect class="cls-1" x="486.74" y="601.03" width="267.39" height="10.96"/><path class="cls-1" d="M329,435.16V612h41.36V537.63a1.31,1.31,0,0,0,0-.28c0-18,13.41-32.56,29.95-32.56s30,14.57,30,32.56c0,.09,0,.19,0,.28s0,74.35,0,74.35h41.35V435.16Z"/><rect class="cls-1" x="591.6" y="268.89" width="10.07" height="63.27"/><polygon class="cls-1" points="615.18 279.85 618.45 279.85 630.19 188.7 626.85 188.7 615.18 279.85"/><path class="cls-1" d="M558.05,188.7l11.75,91.15h38.59l11.74-91.15Zm47,5.84c4.43,0,8,3.92,8,8.74s-3.61,8.74-8,8.74-8-3.92-8-8.74S600.59,194.54,605,194.54Zm-16.78,0c4.43,0,8,3.92,8,8.74s-3.61,8.74-8,8.74-8-3.92-8-8.74S583.81,194.54,588.26,194.54Zm7.7,28.79c0,4.62-3.46,8.37-7.7,8.37s-7.71-3.75-7.71-8.37S584,215,588.26,215,596,218.72,596,223.33Zm-24.48-28.79c4.43,0,8,3.92,8,8.74s-3.6,8.74-8,8.74-8-3.92-8-8.74S567,194.54,571.48,194.54Zm-7.71,28.79c0-4.61,3.44-8.37,7.71-8.37s7.71,3.76,7.71,8.37-3.46,8.37-7.71,8.37S563.77,228,563.77,223.33Zm3.1,19.14c0-4,3-7.27,6.7-7.27a7.3,7.3,0,1,1-6.7,7.27Zm8.8,23.51a6.21,6.21,0,1,1,5.68-6.18A5.95,5.95,0,0,1,575.67,266Zm12.59,0A6.21,6.21,0,1,1,594,259.8,5.95,5.95,0,0,1,588.26,266Zm0-16.23a7,7,0,0,1-6.69-7.28c0-4,3-7.27,6.69-7.27s6.69,3.26,6.69,7.27S592,249.75,588.26,249.75ZM600.83,266a6.21,6.21,0,1,1,5.7-6.18A5.93,5.93,0,0,1,600.83,266Zm2.11-16.23a7.3,7.3,0,0,1,0-14.55c3.7,0,6.69,3.26,6.69,7.27S606.64,249.75,602.94,249.75ZM605,231.7c-4.24,0-7.7-3.74-7.7-8.37S600.79,215,605,215s7.71,3.76,7.71,8.37S609.29,231.7,605,231.7Z"/><rect class="cls-1" x="199.02" y="268.89" width="10.07" height="63.27"/><polygon class="cls-1" points="185.51 279.85 182.23 279.85 170.5 188.7 173.85 188.7 185.51 279.85"/><path class="cls-1" d="M180.56,188.7l11.74,91.15h38.59l11.75-91.15Zm23.13,14.58c0,4.82-3.59,8.73-8,8.73s-8-3.91-8-8.73,3.6-8.74,8-8.74S203.69,198.46,203.69,203.28Zm16.78,0c0,4.82-3.59,8.73-8,8.73s-8-3.91-8-8.73,3.6-8.74,8-8.74S220.47,198.46,220.47,203.28Zm-8,11.68c4.27,0,7.72,3.76,7.72,8.37s-3.45,8.37-7.72,8.37-7.7-3.75-7.7-8.37S208.18,215,212.43,215Zm24.82-11.68c0,4.82-3.59,8.73-8,8.73s-8-3.91-8-8.73,3.61-8.74,8-8.74S237.25,198.46,237.25,203.28Zm-8,28.42c-4.26,0-7.71-3.75-7.71-8.37S225,215,229.21,215s7.71,3.76,7.71,8.37S233.47,231.7,229.21,231.7Zm-2.1,18.05c-3.69,0-6.68-3.25-6.68-7.28s3-7.27,6.68-7.27a7.3,7.3,0,0,1,0,14.55Zm-7.78,10.05A5.71,5.71,0,1,1,225,266,6,6,0,0,1,219.33,259.8Zm-12.59,0a5.71,5.71,0,1,1,5.69,6.18A6,6,0,0,1,206.74,259.8Zm-1-17.33c0-4,3-7.27,6.69-7.27s6.69,3.26,6.69,7.27-3,7.28-6.69,7.28S205.74,246.5,205.74,242.47ZM194.16,259.8a5.71,5.71,0,1,1,5.7,6.18A6,6,0,0,1,194.16,259.8Zm-3.1-17.33a7,7,0,0,1,6.7-7.27c3.69,0,6.69,3.26,6.69,7.27s-3,7.28-6.69,7.28A7,7,0,0,1,191.06,242.47ZM188,223.33c0-4.61,3.46-8.37,7.71-8.37s7.7,3.76,7.7,8.37-3.45,8.37-7.7,8.37S188,228,188,223.33Z"/></svg>