<svg id="Layer_1" data-name="Layer 1" xmlns="http://www.w3.org/2000/svg" viewBox="0 0 800.68 800.68"><defs><style>.cls-1{fill:#fff;}</style></defs><path class="cls-1" d="M542.73,286.42s-2.71-96.67-2.83-97.83a17.89,17.89,0,0,0-1.4-5.27,17.61,17.61,0,0,0-9.79-9.35l-28.65-11.11A17.68,17.68,0,0,0,477.17,173l-19.65,50.67c-3-.72-6-1.35-9.11-1.86V202.65a48.07,48.07,0,1,0-96.13,0v19.11q-4.62.78-9.14,1.86L323.49,173a17.67,17.67,0,0,0-22.89-10.09L272,174a17.65,17.65,0,0,0-11.17,14.43c-.14,1.21-2.85,98.06-2.85,98.06a135.47,135.47,0,0,0-19.18,69.64V616.28a29.85,29.85,0,0,0,29.81,29.82H532.12a29.85,29.85,0,0,0,29.81-29.82V356.1a135.37,135.37,0,0,0-19.2-69.68Zm-16.4-22.07a138.83,138.83,0,0,0-9.91-9.8l8.93-23Zm-34.48-85.7a2,2,0,0,1,2.52-1.12L523,188.64a2,2,0,0,1,1.09,1,1.94,1.94,0,0,1,0,1.5L503.5,244.33a135.58,135.58,0,0,0-30.87-16.14Zm-91.51-8.33a32.38,32.38,0,0,1,31.92,27.19,47.94,47.94,0,0,0-63.81-.1,32.37,32.37,0,0,1,31.89-27.09Zm29.39,49.6c-1.34,0-57.43,0-58.78,0a32.32,32.32,0,0,1,58.78,0ZM276.56,189.67a2,2,0,0,1,1.09-1l28.64-11.11a2,2,0,0,1,2.52,1.12L328,228.2a135.84,135.84,0,0,0-30.88,16.14l-20.63-53.17a2,2,0,0,1,0-1.5Zm-1.25,41.87,8.94,23a136.77,136.77,0,0,0-9.91,9.8ZM546.2,616.28a14.1,14.1,0,0,1-14.08,14.08H268.56a14.09,14.09,0,0,1-14.07-14.08V356.1A120.65,120.65,0,0,1,375,235.59h50.69A120.65,120.65,0,0,1,546.2,356.1Zm0,0"/><path class="cls-1" d="M293.57,420.81a23.07,23.07,0,0,0-23.05,23V592.14a23.07,23.07,0,0,0,23,23H507.12a23.07,23.07,0,0,0,23-23V443.85a23.07,23.07,0,0,0-23-23ZM507.12,599.44H293.56a7.32,7.32,0,0,1-7.3-7.3V493.23H484.37v17.9h15.74v-17.9h14.31v98.91a7.31,7.31,0,0,1-7.3,7.3Zm7.3-155.59v33.64H286.26V443.85a7.31,7.31,0,0,1,7.31-7.3H507.12a7.3,7.3,0,0,1,7.3,7.3Zm0,0"/><path class="cls-1" d="M450.29,267.94h-99.9v44.94h99.9Zm-15.74,29.2H366.13V283.68h68.42Zm0,0"/></svg>