<svg id="Layer_1" data-name="Layer 1" xmlns="http://www.w3.org/2000/svg" viewBox="0 0 800.68 800.68"><defs><style>.cls-1{fill:#fff;}</style></defs><path class="cls-1" d="M199.72,376.18h24.44l-7.25,30.1c-1.2,5,1.37,9.88,6.39,12.19a13.36,13.36,0,0,0,5.53,1.21,12.55,12.55,0,0,0,9.06-3.8l58.6-60.9a10.11,10.11,0,0,0,1.91-11.79,12.1,12.1,0,0,0-11-6.46H262.91l7.25-30.1c1.2-5-1.37-9.89-6.39-12.19A12.82,12.82,0,0,0,249.18,297l-58.59,60.9a10.1,10.1,0,0,0-1.91,11.8A12.12,12.12,0,0,0,199.72,376.18ZM252.37,315l-6.56,27.25a6.51,6.51,0,0,0,1.52,5.88,8,8,0,0,0,6,2.61h26.78L234.7,397.93l6.56-27.25a6.53,6.53,0,0,0-1.52-5.89,8,8,0,0,0-6-2.61H207Zm82.69,175.5V227.21c0-3.87-3.44-7-7.7-7H153.7c-4.26,0-7.71,3.13-7.71,7V490.48c0,3.86,3.45,7,7.71,7H327.36C331.62,497.48,335.06,494.34,335.06,490.48Zm-15.41-7H161.41V234.2H319.65ZM218.52,204.74h44c4.25,0,7.7-3.13,7.7-7s-3.45-7-7.7-7h-44c-4.26,0-7.7,3.13-7.7,7S214.26,204.74,218.52,204.74Zm21.65,301c-14.83,0-26.89,11-26.89,24.42s12.06,24.43,26.89,24.43,26.91-11,26.91-24.43S255,505.77,240.17,505.77Zm0,34.85c-6.32,0-11.48-4.68-11.48-10.43s5.16-10.43,11.48-10.43,11.5,4.68,11.5,10.43S246.51,540.62,240.17,540.62Zm313.72-53.08h49.82c16.26,0,29.49-12,29.49-26.79v-117C633.2,329,620,317,603.71,317h-17.2v-1.49c0-3.86-3.45-7-7.71-7s-7.71,3.13-7.71,7V317h-17.2c-16.26,0-29.49,12-29.49,26.79v117C524.4,475.52,537.63,487.54,553.89,487.54ZM539.81,343.77c0-7.06,6.31-12.8,14.08-12.8h49.82c7.77,0,14.08,5.74,14.08,12.8v117c0,7.05-6.31,12.79-14.08,12.79H553.89c-7.77,0-14.08-5.74-14.08-12.79Zm27.32,30h4v3.6c0,3.87,3.45,7,7.71,7s7.71-3.13,7.71-7v-3.6h4c4.26,0,7.71-3.13,7.71-7s-3.45-7-7.71-7h-4v-3.6c0-3.86-3.45-7-7.71-7s-7.71,3.14-7.71,7v3.6h-4c-4.26,0-7.71,3.14-7.71,7S562.87,373.81,567.13,373.81Zm0,78.67h23.34c4.26,0,7.71-3.13,7.71-7s-3.45-7-7.71-7H567.13c-4.26,0-7.71,3.14-7.71,7S562.87,452.48,567.13,452.48Zm61.56-232.27H607.42V206.78c0-12.73-9.69-23.37-22.71-26.36-3.35-28.78-30.22-51.27-62.78-51.27H475.26c-34.82,0-63.14,25.72-63.14,57.34v424c0,25.94-23.24,47-51.81,47H299.69c-26.38,0-48.18-18-51.37-41.2,12.6-3.25,21.9-13.68,21.9-26.14V575.75H331c19.72,0,35.78-14.58,35.78-32.49V194.89c0-17.92-16.06-32.5-35.78-32.5H150.06c-19.74,0-35.79,14.58-35.79,32.5V543.26c0,17.91,16,32.49,35.79,32.49h60.07V590.2c0,12.72,9.68,23.35,22.68,26.36,3.36,30.82,32.07,55,66.88,55h60.62c37.07,0,67.22-27.38,67.22-61v-424c0-23.9,21.41-43.34,47.73-43.34h46.67c24.14,0,44.09,16.36,47.25,37.51-12.57,3.26-21.86,13.67-21.86,26.12v13.43H526.05c-31.83,0-57.72,23.52-57.72,52.42v317.1c0,28.9,25.89,52.42,57.72,52.42H628.69c31.83,0,57.72-23.52,57.72-52.42V272.63C686.41,243.73,660.52,220.21,628.69,220.21Zm-499,323V194.89c0-10.2,9.13-18.5,20.37-18.5H331c11.23,0,20.36,8.3,20.36,18.5V543.26c0,10.19-9.13,18.49-20.36,18.49H150.06C138.82,561.75,129.69,553.45,129.69,543.26Zm95.86,46.94V576.91h29.26V590.2c0,7.33-6.57,13.29-14.64,13.29S225.55,597.53,225.55,590.2ZM562.73,206.78c0-7.33,6.57-13.29,14.64-13.29s14.64,6,14.64,13.29v13.3H562.73Zm-79,71c0-24,19-43.59,42.31-43.59H628.69C652,234.2,671,253.75,671,277.79V583.55c0,24-19,43.58-42.31,43.58H526.05c-23.33,0-42.31-19.55-42.31-43.58V277.79Zm114,326.68H557c-4.26,0-7.71,3.13-7.71,7s3.45,7,7.71,7h40.84c4.26,0,7.7-3.14,7.7-7S602.05,604.47,597.79,604.47Zm-71.46-55.92c3.86,0,7-2.84,7-6.34s-3.12-6.34-7-6.34-7,2.84-7,6.34S522.47,548.55,526.33,548.55Zm34.88-12.68c-3.85,0-7,2.84-7,6.34s3.13,6.34,7,6.34,7-2.84,7-6.34S565.07,535.87,561.21,535.87Zm34.89,0c-3.86,0-7,2.84-7,6.34s3.13,6.34,7,6.34,7-2.84,7-6.34S600,535.87,596.1,535.87Zm27.9,6.34c0,3.5,3.12,6.34,7,6.34s7-2.84,7-6.34-3.12-6.34-7-6.34S624,538.71,624,542.21Z"/></svg>