<svg id="Layer_1" data-name="Layer 1" xmlns="http://www.w3.org/2000/svg" viewBox="0 0 800.68 800.68"><defs><style>.cls-1{fill:#0c5690;}</style></defs><path class="cls-1" d="M276.88,591h37.31a22,22,0,0,0,22-22V544.89a22,22,0,0,0-22-22H276.88a22,22,0,0,0-22,22V569A22,22,0,0,0,276.88,591Zm-2-46.15a2,2,0,0,1,2-2h37.31a2,2,0,0,1,2,2V569a2,2,0,0,1-2,2H276.88a2,2,0,0,1-2-2Z"/><path class="cls-1" d="M480.15,591h37.31a22,22,0,0,0,22-22V544.89a22,22,0,0,0-22-22H480.15a22,22,0,0,0-22,22V569A22,22,0,0,0,480.15,591Zm-2-46.15a2,2,0,0,1,2-2h37.31a2,2,0,0,1,2,2V569a2,2,0,0,1-2,2H480.15a2,2,0,0,1-2-2Z"/><path class="cls-1" d="M360.82,571.61h70.1a10,10,0,0,0,0-20h-70.1a10,10,0,0,0,0,20Z"/><path class="cls-1" d="M626.4,346.1c-2.82-34.57-12.84-84.94-44.58-128.63a188.49,188.49,0,0,0-69.43-58.64c-32.47-16.1-71.41-24.26-115.74-24.26-72.76,0-130.06,26.17-170.33,77.79-32.21,41.29-46,89.38-51.83,122.45a17.23,17.23,0,0,0,28.82,15.51,64.64,64.64,0,0,1,53-17.49c19.72,2.48,36.57,13.46,47.47,30.93l2.72,4.37a17.15,17.15,0,0,0,14.63,8.12h0a17.14,17.14,0,0,0,14.62-8.14l8.36-13.45a65.14,65.14,0,0,1,46.26-30.27v72.12H307.92c-9.48,0-18.88,6.26-22.34,14.87L256.9,482.64a26.58,26.58,0,0,0-2,10h-7.76a22,22,0,0,0-22,22v85.63a22,22,0,0,0,9.29,17.94,21.9,21.9,0,0,0-1.21,7.18v18.74a22,22,0,0,0,22,22h32.7a22,22,0,0,0,22-22V625.37a22.91,22.91,0,0,0-.22-3.12H489.45a22.91,22.91,0,0,0-.22,3.12v18.74a22,22,0,0,0,22,22h32.69a22,22,0,0,0,22-22V625.37a21.9,21.9,0,0,0-1.21-7.18,22,22,0,0,0,9.3-17.94V514.62a22,22,0,0,0-22-22h-7.76a26.58,26.58,0,0,0-2-10l-28.68-71.26c-3.47-8.61-12.87-14.87-22.35-14.87H410.34V324.57a65.06,65.06,0,0,1,45,30l8.53,13.67a17.14,17.14,0,0,0,14.53,8.12h.09a17.12,17.12,0,0,0,14.52-8c11.34-17.75,29.47-28.89,49.73-30.57a64.61,64.61,0,0,1,53.71,21.26,17.23,17.23,0,0,0,29.91-13Zm-336.5,298a2,2,0,0,1-2,2H255.2a2,2,0,0,1-2-2V625.37a2,2,0,0,1,2-2h32.7a2,2,0,0,1,2,2Zm256,0a2,2,0,0,1-2,2H511.23a2,2,0,0,1-2-2V625.37a2,2,0,0,1,2-2h32.69a2,2,0,0,1,2,2ZM554,514.62v85.63a2,2,0,0,1-2,2H247.12a2,2,0,0,1-2-2V514.62a2,2,0,0,1,2-2H552A2,2,0,0,1,554,514.62Zm-59-95.77,28.68,71.26a8.55,8.55,0,0,1,.43,1.36H275a8.55,8.55,0,0,1,.43-1.36l28.68-71.26a5.39,5.39,0,0,1,3.79-2.34H491.2A5.41,5.41,0,0,1,495,418.85Zm46.13-100.93a84,84,0,0,0-50.69,22.58c-3.3-83.86-40.93-147-42.6-149.78a10,10,0,0,0-17.12,10.34c.39.64,36.51,61.48,39.72,140a85,85,0,0,0-70.68-37.37h-.06a85,85,0,0,0-70,36.46c3.45-78.11,39.3-138.49,39.68-139.12a10,10,0,0,0-17.12-10.34c-1.66,2.75-38.84,65.15-42.53,148.25a84.63,84.63,0,0,0-114-8.49c12-58.65,54.5-175.91,201-175.91,167.82,0,202.32,124,209.08,185.46A84.38,84.38,0,0,0,541.13,317.92Z"/></svg>