<svg xmlns="http://www.w3.org/2000/svg" viewBox="0 0 194.92 191.35"><defs><style>.cls-1{fill:#24326a;fill-rule:evenodd;}</style></defs><g id="Layer_2" data-name="Layer 2"><g id="Layer_1-2" data-name="Layer 1"><path class="cls-1" d="M7.55,95.68c0-48.77,40.26-88.27,89.91-88.27s89.9,39.5,89.9,88.27-40.24,88.25-89.9,88.25S7.55,144.42,7.55,95.68ZM0,95.68C0,42.83,43.65,0,97.46,0s97.46,42.83,97.46,95.68-43.64,95.67-97.46,95.67S0,148.52,0,95.68Z"/><path class="cls-1" d="M83.55,86.79c-4.06,3.75-10.93,11.59-7.47,18.93,3,6.33,13,8.89,21.6,10.81,7.68,1.72,15.91,3.16,24.15,4.85,16.68,3.43,33.23,7.57,34.46,23.32a23.8,23.8,0,0,1-3,14.09c-.07.17-.19.38,0,.16,10.91-9.53,20-21.72,25.09-37.26a79.31,79.31,0,0,0,4.13-26.92c-1.11-29.22-13.64-49-30.65-63.07-11.57-9.57-26.14-16.33-44-18.79C102.42,15.2,96.25,18.49,92,22.14c-4.11,3.5-9.43,9.36-8.41,16.28.43,3,2.55,5,4.92,6.57,8.74,5.93,23.16,7.29,35.9,9.71,13.29,2.53,25.61,5.37,33.2,12.37,4.28,4.26,5.67,10.2,5.08,17.21a32.3,32.3,0,0,1-6.36,16.29c-4.78,6.51-11.15,11.39-18.42,15.65-2.27,1.32-5.65,3.7-7.63,3.91a22.91,22.91,0,0,1-4.44-.63c-9-1.4-17.53-3.31-25.57-5.16-1.35-.32-2.9-.27-4-1.25a32.51,32.51,0,0,0,15.09-8c4.7-4.11,12-12.44,6.68-20-3.06-4.39-10.48-7.2-17.16-9.08-14.1-4-29.61-5.22-43-9.55-6.68-2.15-13.21-5.14-16.2-10-3.4-5.57-4.71-16.31-.32-23.16-15.92,13.83-28.9,34.08-28.9,63.86a79.29,79.29,0,0,0,4.76,26.45A81.58,81.58,0,0,0,42.88,160.2a83.78,83.78,0,0,0,37.33,17.54c2.36.47,5.05,1.32,6.83,1.09,2.28-.28,5.93-2.58,8.27-3.92a48.91,48.91,0,0,0,7.14-5c3.88-3.19,9.15-8.55,8.89-15.33-.27-7.25-9.13-10.36-14.93-12.06-19-5.61-43.39-5.64-56.86-15.81-4.95-3.73-7.6-8.66-7.63-16.29A31.85,31.85,0,0,1,37.8,92.27C42.93,84.87,49.5,79.92,57,75.36c1.63-1,6-4,8.11-4.06a21.67,21.67,0,0,1,4.13.78C73.6,72.9,78,73.79,82,74.58c5.86,1.19,11.49,2,16.52,3.75A33.42,33.42,0,0,0,83.55,86.79Z"/></g></g></svg>